#N canvas 811 179 544 409 10;
#X obj 52 62 adc~ 1 2 3 4;
#X obj 48 242 +binaural~;
#X msg 56 197 angle \$1;
#X floatatom 71 130 5 0 0 0 - - -, f 5;
#X obj 130 237 +binaural~;
#X msg 129 197 angle \$1;
#X obj 149 159 + 90;
#X obj 212 159 + 90;
#X obj 302 156 + 90;
#X obj 205 243 +binaural~;
#X msg 214 198 angle \$1;
#X obj 299 243 +binaural~;
#X msg 310 196 angle \$1;
#X msg 239 88 \; pd dsp 1 \;;
#X obj 196 18 loadbang;
#X obj 117 304 dac~ 1 2;
#X obj 199 47 b b b;
#X obj 152 21 bng 15 250 50 0 empty empty empty 17 7 0 10 -262144 -1
-1;
#X msg 150 55 -180;
#X connect 0 0 1 0;
#X connect 0 1 4 0;
#X connect 0 2 9 0;
#X connect 0 3 11 0;
#X connect 1 0 15 0;
#X connect 1 1 15 1;
#X connect 2 0 1 0;
#X connect 3 0 2 0;
#X connect 3 0 6 0;
#X connect 4 0 15 0;
#X connect 4 1 15 1;
#X connect 5 0 4 0;
#X connect 6 0 7 0;
#X connect 6 0 5 0;
#X connect 7 0 8 0;
#X connect 7 0 10 0;
#X connect 8 0 12 0;
#X connect 9 0 15 0;
#X connect 9 1 15 1;
#X connect 10 0 9 0;
#X connect 11 0 15 0;
#X connect 11 1 15 1;
#X connect 12 0 11 0;
#X connect 14 0 16 0;
#X connect 16 0 13 0;
#X connect 16 0 18 0;
#X connect 17 0 18 0;
#X connect 18 0 3 0;
